G04*
G04 #@! TF.GenerationSoftware,Altium Limited,Altium Designer,20.0.13 (296)*
G04*
G04 Layer_Color=65535*
%FSLAX44Y44*%
%MOMM*%
G71*
G01*
G75*
%ADD10C,0.1000*%
%ADD11C,0.2500*%
%ADD12C,0.2000*%
%ADD13C,0.2540*%
D10*
X1079500Y681990D02*
G03*
X1101180Y690970I0J30661D01*
G01*
X1106080Y695870D02*
G03*
X1115060Y717550I-21680J21680D01*
G01*
Y1193800D02*
G03*
X1106080Y1215480I-30661J0D01*
G01*
X1104990Y1216570D02*
G03*
X1083310Y1225550I-21680J-21680D01*
G01*
X1104990Y1216570D02*
G03*
X1083310Y1225550I-21680J-21680D01*
G01*
X759460D02*
G03*
X737780Y1216570I0J-30661D01*
G01*
X732880Y1211670D02*
G03*
X723900Y1189990I21680J-21680D01*
G01*
Y713740D02*
G03*
X732880Y692060I30661J0D01*
G01*
X733970Y690970D02*
G03*
X755650Y681990I21680J21680D01*
G01*
X733970Y690970D02*
G03*
X755650Y681990I21680J21680D01*
G01*
X759460Y1225550D02*
X1083310D01*
X1101180Y690970D02*
X1106080Y695870D01*
X1115060Y717550D02*
Y1193800D01*
X1104990Y1216570D02*
X1106080Y1215480D01*
X755650Y681990D02*
X1083310D01*
X732880Y1211670D02*
X737780Y1216570D01*
X723900Y713740D02*
Y1189990D01*
X732880Y692060D02*
X733970Y690970D01*
D11*
X787660Y751840D02*
G03*
X787660Y751840I-1250J0D01*
G01*
D12*
X899010Y1024890D02*
G03*
X899010Y1024890I-63750J0D01*
G01*
X899830Y871220D02*
G03*
X899830Y871220I-62500J0D01*
G01*
X792910Y740160D02*
X865710D01*
Y763520D01*
X792910D02*
X865710D01*
X792910Y740160D02*
Y763520D01*
X972820Y879910D02*
X1012070D01*
Y854910D02*
Y879910D01*
X972820Y854910D02*
X1012070D01*
X933450Y860660D02*
Y874160D01*
X1013600Y1040230D02*
Y1087230D01*
X908200D02*
X1013600D01*
X908200Y1001880D02*
Y1087230D01*
X936470Y948440D02*
X996470D01*
X936470Y885440D02*
X996470D01*
X944930Y957780D02*
X991030D01*
X944930Y982780D02*
X982930D01*
X973060Y845620D02*
X1012310D01*
Y820620D02*
Y845620D01*
X973060Y820620D02*
X1012310D01*
X933450Y826370D02*
Y839870D01*
X944110Y730510D02*
Y765550D01*
X1009150D01*
Y730510D02*
Y765550D01*
X944110Y730510D02*
X1009150D01*
X945480Y708030D02*
Y721030D01*
X1024610Y739770D02*
Y780770D01*
X1053110Y745770D02*
Y780770D01*
X906500Y740510D02*
Y781510D01*
X935000Y746510D02*
Y781510D01*
X749615Y1216871D02*
X748449Y1218038D01*
X746116D01*
X744950Y1216871D01*
Y1212206D01*
X746116Y1211040D01*
X748449D01*
X749615Y1212206D01*
X755447Y1218038D02*
X753114D01*
X751948Y1216871D01*
Y1212206D01*
X753114Y1211040D01*
X755447D01*
X756613Y1212206D01*
Y1216871D01*
X755447Y1218038D01*
X758945D02*
Y1211040D01*
X762444D01*
X763611Y1212206D01*
Y1213373D01*
X762444Y1214539D01*
X758945D01*
X762444D01*
X763611Y1215705D01*
Y1216871D01*
X762444Y1218038D01*
X758945D01*
X765943Y1211040D02*
Y1215705D01*
X768276Y1218038D01*
X770608Y1215705D01*
Y1211040D01*
Y1214539D01*
X765943D01*
X772941Y1211040D02*
Y1218038D01*
X777606Y1211040D01*
Y1218038D01*
X793858Y1194755D02*
Y1199420D01*
X786860D01*
Y1194755D01*
X790359Y1199420D02*
Y1197087D01*
X793858Y1187757D02*
Y1192422D01*
X790359D01*
Y1190090D01*
Y1192422D01*
X786860D01*
X793858Y1180759D02*
Y1185424D01*
X786860D01*
Y1180759D01*
X790359Y1185424D02*
Y1183092D01*
X736746Y1178241D02*
X732081D01*
X729748Y1180573D01*
X732081Y1182906D01*
X736746D01*
X733247D01*
Y1178241D01*
X736746Y1185238D02*
X729748D01*
X736746Y1189904D01*
X729748D01*
Y1192236D02*
Y1194569D01*
Y1193402D01*
X736746D01*
Y1192236D01*
Y1194569D01*
X729748Y1198068D02*
X736746D01*
Y1202733D01*
X752858Y885920D02*
X742861D01*
X746193Y889252D01*
X742861Y892585D01*
X752858D01*
X746193Y897583D02*
Y900915D01*
X747859Y902581D01*
X752858D01*
Y897583D01*
X751192Y895917D01*
X749526Y897583D01*
Y902581D01*
X746193Y905914D02*
X752858Y912578D01*
X749526Y909246D01*
X746193Y912578D01*
X752858Y905914D01*
X742861Y925907D02*
X749526D01*
X752858Y929239D01*
X749526Y932572D01*
X742861D01*
X752858Y937570D02*
Y940902D01*
X751192Y942568D01*
X747859D01*
X746193Y940902D01*
Y937570D01*
X747859Y935904D01*
X751192D01*
X752858Y937570D01*
Y945901D02*
Y949233D01*
Y947567D01*
X742861D01*
Y945901D01*
X744527Y955898D02*
X746193D01*
Y954231D01*
Y957564D01*
Y955898D01*
X751192D01*
X752858Y957564D01*
X746193Y964228D02*
Y967560D01*
X747859Y969227D01*
X752858D01*
Y964228D01*
X751192Y962562D01*
X749526Y964228D01*
Y969227D01*
X756190Y975891D02*
Y977557D01*
X754524Y979223D01*
X746193D01*
Y974225D01*
X747859Y972559D01*
X751192D01*
X752858Y974225D01*
Y979223D01*
Y987554D02*
Y984222D01*
X751192Y982555D01*
X747859D01*
X746193Y984222D01*
Y987554D01*
X747859Y989220D01*
X749526D01*
Y982555D01*
X744527Y1002549D02*
X742861Y1004215D01*
Y1007548D01*
X744527Y1009214D01*
X746193D01*
X747859Y1007548D01*
Y1005881D01*
Y1007548D01*
X749526Y1009214D01*
X751192D01*
X752858Y1007548D01*
Y1004215D01*
X751192Y1002549D01*
X744527Y1012546D02*
X742861Y1014212D01*
Y1017544D01*
X744527Y1019210D01*
X751192D01*
X752858Y1017544D01*
Y1014212D01*
X751192Y1012546D01*
X744527D01*
X742861Y1022543D02*
X749526D01*
X752858Y1025875D01*
X749526Y1029207D01*
X742861D01*
X1070521Y872264D02*
Y865600D01*
X1075519D01*
X1073853Y868932D01*
Y870598D01*
X1075519Y872264D01*
X1078852D01*
X1080518Y870598D01*
Y867266D01*
X1078852Y865600D01*
X1070521Y875597D02*
X1077186D01*
X1080518Y878929D01*
X1077186Y882261D01*
X1070521D01*
X1080518Y895590D02*
X1073853D01*
X1070521Y898923D01*
X1073853Y902255D01*
X1080518D01*
X1075519D01*
Y895590D01*
X1080518Y905587D02*
X1070521D01*
X1080518Y912252D01*
X1070521D01*
Y915584D02*
X1080518D01*
Y920582D01*
X1078852Y922248D01*
X1072187D01*
X1070521Y920582D01*
Y915584D01*
X1072187Y935577D02*
X1070521Y937244D01*
Y940576D01*
X1072187Y942242D01*
X1073853D01*
X1075519Y940576D01*
Y938910D01*
Y940576D01*
X1077186Y942242D01*
X1078852D01*
X1080518Y940576D01*
Y937244D01*
X1078852Y935577D01*
X1080518Y945574D02*
X1078852D01*
Y947240D01*
X1080518D01*
Y945574D01*
X1072187Y953905D02*
X1070521Y955571D01*
Y958903D01*
X1072187Y960569D01*
X1073853D01*
X1075519Y958903D01*
Y957237D01*
Y958903D01*
X1077186Y960569D01*
X1078852D01*
X1080518Y958903D01*
Y955571D01*
X1078852Y953905D01*
X1070521Y963902D02*
X1077186D01*
X1080518Y967234D01*
X1077186Y970566D01*
X1070521D01*
X1080518Y983895D02*
X1070521D01*
Y988894D01*
X1072187Y990560D01*
X1075519D01*
X1077186Y988894D01*
Y983895D01*
Y987227D02*
X1080518Y990560D01*
Y998890D02*
Y995558D01*
X1078852Y993892D01*
X1075519D01*
X1073853Y995558D01*
Y998890D01*
X1075519Y1000556D01*
X1077186D01*
Y993892D01*
X1083850Y1007221D02*
Y1008887D01*
X1082184Y1010553D01*
X1073853D01*
Y1005555D01*
X1075519Y1003889D01*
X1078852D01*
X1080518Y1005555D01*
Y1010553D01*
X1073853Y1013886D02*
X1078852D01*
X1080518Y1015552D01*
Y1020550D01*
X1073853D01*
X1080518Y1023882D02*
Y1027215D01*
Y1025548D01*
X1070521D01*
Y1023882D01*
X1073853Y1033879D02*
Y1037211D01*
X1075519Y1038877D01*
X1080518D01*
Y1033879D01*
X1078852Y1032213D01*
X1077186Y1033879D01*
Y1038877D01*
X1072187Y1043876D02*
X1073853D01*
Y1042210D01*
Y1045542D01*
Y1043876D01*
X1078852D01*
X1080518Y1045542D01*
Y1052206D02*
Y1055539D01*
X1078852Y1057205D01*
X1075519D01*
X1073853Y1055539D01*
Y1052206D01*
X1075519Y1050540D01*
X1078852D01*
X1080518Y1052206D01*
X1073853Y1060537D02*
X1080518D01*
X1077186D01*
X1075519Y1062203D01*
X1073853Y1063869D01*
Y1065536D01*
X1092300Y819880D02*
X1099297D01*
Y823379D01*
X1098131Y824545D01*
X1093466D01*
X1092300Y823379D01*
Y819880D01*
X1099297Y830377D02*
Y828044D01*
X1098131Y826878D01*
X1095798D01*
X1094632Y828044D01*
Y830377D01*
X1095798Y831543D01*
X1096965D01*
Y826878D01*
X1099297Y833876D02*
Y837374D01*
X1098131Y838541D01*
X1096965Y837374D01*
Y835042D01*
X1095798Y833876D01*
X1094632Y835042D01*
Y838541D01*
X1099297Y840873D02*
Y843206D01*
Y842039D01*
X1094632D01*
Y840873D01*
X1101630Y849037D02*
Y850204D01*
X1100464Y851370D01*
X1094632D01*
Y847871D01*
X1095798Y846705D01*
X1098131D01*
X1099297Y847871D01*
Y851370D01*
Y853702D02*
X1094632D01*
Y857201D01*
X1095798Y858368D01*
X1099297D01*
Y864199D02*
Y861867D01*
X1098131Y860700D01*
X1095798D01*
X1094632Y861867D01*
Y864199D01*
X1095798Y865365D01*
X1096965D01*
Y860700D01*
X1092300Y872363D02*
X1099297D01*
Y868864D01*
X1098131Y867698D01*
X1095798D01*
X1094632Y868864D01*
Y872363D01*
X1092300Y881693D02*
X1099297D01*
Y885192D01*
X1098131Y886359D01*
X1096965D01*
X1095798D01*
X1094632Y885192D01*
Y881693D01*
Y888691D02*
X1098131D01*
X1099297Y889857D01*
Y893356D01*
X1100464D01*
X1101630Y892190D01*
Y891024D01*
X1099297Y893356D02*
X1094632D01*
X1099297Y902687D02*
X1094632D01*
X1092300Y905019D01*
X1094632Y907352D01*
X1099297D01*
X1095798D01*
Y902687D01*
X1099297Y909685D02*
X1098131D01*
Y910851D01*
X1099297D01*
Y909685D01*
X1092300Y920181D02*
Y915516D01*
X1099297D01*
Y920181D01*
X1095798Y915516D02*
Y917849D01*
X1099297Y922514D02*
X1098131D01*
Y923680D01*
X1099297D01*
Y922514D01*
X1093466Y933010D02*
X1092300Y931844D01*
Y929511D01*
X1093466Y928345D01*
X1098131D01*
X1099297Y929511D01*
Y931844D01*
X1098131Y933010D01*
X1099297Y943507D02*
X1093466D01*
X1095798D01*
Y942341D01*
Y944673D01*
Y943507D01*
X1093466D01*
X1092300Y944673D01*
X1099297Y949338D02*
Y951671D01*
X1098131Y952837D01*
X1095798D01*
X1094632Y951671D01*
Y949338D01*
X1095798Y948172D01*
X1098131D01*
X1099297Y949338D01*
X1094632Y955170D02*
X1099297D01*
X1096965D01*
X1095798Y956336D01*
X1094632Y957502D01*
Y958669D01*
X1092300Y972664D02*
Y970332D01*
X1093466Y969165D01*
X1098131D01*
X1099297Y970332D01*
Y972664D01*
X1098131Y973830D01*
X1093466D01*
X1092300Y972664D01*
X1101630Y976163D02*
X1094632D01*
Y979662D01*
X1095798Y980828D01*
X1098131D01*
X1099297Y979662D01*
Y976163D01*
Y986660D02*
Y984327D01*
X1098131Y983161D01*
X1095798D01*
X1094632Y984327D01*
Y986660D01*
X1095798Y987826D01*
X1096965D01*
Y983161D01*
X1099297Y990159D02*
X1094632D01*
Y993658D01*
X1095798Y994824D01*
X1099297D01*
X1093466Y1008819D02*
X1092300Y1007653D01*
Y1005320D01*
X1093466Y1004154D01*
X1094632D01*
X1095798Y1005320D01*
Y1007653D01*
X1096965Y1008819D01*
X1098131D01*
X1099297Y1007653D01*
Y1005320D01*
X1098131Y1004154D01*
X1099297Y1012318D02*
Y1014651D01*
X1098131Y1015817D01*
X1095798D01*
X1094632Y1014651D01*
Y1012318D01*
X1095798Y1011152D01*
X1098131D01*
X1099297Y1012318D01*
X1094632Y1018150D02*
X1098131D01*
X1099297Y1019316D01*
Y1022815D01*
X1094632D01*
Y1025147D02*
X1099297D01*
X1096965D01*
X1095798Y1026314D01*
X1094632Y1027480D01*
Y1028646D01*
Y1036810D02*
Y1033311D01*
X1095798Y1032145D01*
X1098131D01*
X1099297Y1033311D01*
Y1036810D01*
Y1042642D02*
Y1040309D01*
X1098131Y1039143D01*
X1095798D01*
X1094632Y1040309D01*
Y1042642D01*
X1095798Y1043808D01*
X1096965D01*
Y1039143D01*
X1093466Y1057803D02*
X1092300Y1056637D01*
Y1054305D01*
X1093466Y1053138D01*
X1094632D01*
X1095798Y1054305D01*
Y1056637D01*
X1096965Y1057803D01*
X1098131D01*
X1099297Y1056637D01*
Y1054305D01*
X1098131Y1053138D01*
X1099297Y1061302D02*
Y1063635D01*
X1098131Y1064801D01*
X1095798D01*
X1094632Y1063635D01*
Y1061302D01*
X1095798Y1060136D01*
X1098131D01*
X1099297Y1061302D01*
X1094632Y1071799D02*
Y1068300D01*
X1095798Y1067134D01*
X1098131D01*
X1099297Y1068300D01*
Y1071799D01*
Y1074132D02*
Y1076464D01*
Y1075298D01*
X1094632D01*
Y1074132D01*
X1099297Y1083462D02*
Y1081129D01*
X1098131Y1079963D01*
X1095798D01*
X1094632Y1081129D01*
Y1083462D01*
X1095798Y1084628D01*
X1096965D01*
Y1079963D01*
X1093466Y1088127D02*
X1094632D01*
Y1086961D01*
Y1089293D01*
Y1088127D01*
X1098131D01*
X1099297Y1089293D01*
X1094632Y1092792D02*
X1098131D01*
X1099297Y1093959D01*
Y1097457D01*
X1100464D01*
X1101630Y1096291D01*
Y1095125D01*
X1099297Y1097457D02*
X1094632D01*
X844010Y733209D02*
X848675D01*
X846343Y735542D02*
Y730876D01*
X855673Y736708D02*
X851008D01*
Y733209D01*
X853340Y734375D01*
X854507D01*
X855673Y733209D01*
Y730876D01*
X854507Y729710D01*
X852174D01*
X851008Y730876D01*
X858006Y736708D02*
Y732043D01*
X860338Y729710D01*
X862671Y732043D01*
Y736708D01*
X812260Y770039D02*
X816925D01*
X814593Y772372D02*
Y767706D01*
X819258Y772372D02*
X820424Y773538D01*
X822757D01*
X823923Y772372D01*
Y771205D01*
X822757Y770039D01*
X821590D01*
X822757D01*
X823923Y768873D01*
Y767706D01*
X822757Y766540D01*
X820424D01*
X819258Y767706D01*
X826255Y766540D02*
Y767706D01*
X827422D01*
Y766540D01*
X826255D01*
X832087Y772372D02*
X833253Y773538D01*
X835586D01*
X836752Y772372D01*
Y771205D01*
X835586Y770039D01*
X834419D01*
X835586D01*
X836752Y768873D01*
Y767706D01*
X835586Y766540D01*
X833253D01*
X832087Y767706D01*
X839085Y773538D02*
Y768873D01*
X841417Y766540D01*
X843750Y768873D01*
Y773538D01*
X799145Y735542D02*
X797979Y736708D01*
X795646D01*
X794480Y735542D01*
Y730876D01*
X795646Y729710D01*
X797979D01*
X799145Y730876D01*
Y733209D01*
X796813D01*
X801478Y729710D02*
Y736708D01*
X806143Y729710D01*
Y736708D01*
X808475D02*
Y729710D01*
X811974D01*
X813141Y730876D01*
Y735542D01*
X811974Y736708D01*
X808475D01*
X1018000Y837497D02*
X1019999Y839496D01*
X1023998D01*
X1025997Y837497D01*
Y835497D01*
X1023998Y833498D01*
X1021999D01*
X1023998D01*
X1025997Y831499D01*
Y829499D01*
X1023998Y827500D01*
X1019999D01*
X1018000Y829499D01*
X1029996Y827500D02*
Y829499D01*
X1031995D01*
Y827500D01*
X1029996D01*
X1039993Y837497D02*
X1041992Y839496D01*
X1045991D01*
X1047990Y837497D01*
Y835497D01*
X1045991Y833498D01*
X1043992D01*
X1045991D01*
X1047990Y831499D01*
Y829499D01*
X1045991Y827500D01*
X1041992D01*
X1039993Y829499D01*
X1051989Y839496D02*
Y831499D01*
X1055988Y827500D01*
X1059986Y831499D01*
Y839496D01*
X1025997Y873786D02*
X1018000D01*
Y867788D01*
X1021999Y869787D01*
X1023998D01*
X1025997Y867788D01*
Y863789D01*
X1023998Y861790D01*
X1019999D01*
X1018000Y863789D01*
X1029996Y873786D02*
Y865789D01*
X1033995Y861790D01*
X1037993Y865789D01*
Y873786D01*
X982440Y1161510D02*
X995769D01*
X844010Y1160555D02*
X857339D01*
X850675Y1167219D02*
Y1153890D01*
X879886Y1210716D02*
Y1190720D01*
X880839Y1210716D02*
Y1190720D01*
X877030Y1210716D02*
X883695D01*
X877030Y1190720D02*
X883695D01*
X890170Y1210716D02*
Y1190720D01*
X891122Y1210716D02*
X902548Y1192624D01*
X891122Y1208811D02*
X902548Y1190720D01*
Y1210716D02*
Y1190720D01*
X887314Y1210716D02*
X891122D01*
X899692D02*
X905405D01*
X887314Y1190720D02*
X893027D01*
X910737Y1210716D02*
Y1190720D01*
X911689Y1210716D02*
Y1190720D01*
X907881Y1210716D02*
X919307D01*
X922163Y1209763D01*
X923115Y1208811D01*
X924068Y1206907D01*
Y1204051D01*
X923115Y1202146D01*
X922163Y1201194D01*
X919307Y1200242D01*
X911689D01*
X919307Y1210716D02*
X921211Y1209763D01*
X922163Y1208811D01*
X923115Y1206907D01*
Y1204051D01*
X922163Y1202146D01*
X921211Y1201194D01*
X919307Y1200242D01*
X907881Y1190720D02*
X914546D01*
X929590Y1210716D02*
Y1196433D01*
X930542Y1193577D01*
X932447Y1191672D01*
X935303Y1190720D01*
X937208D01*
X940064Y1191672D01*
X941969Y1193577D01*
X942921Y1196433D01*
Y1210716D01*
X930542D02*
Y1196433D01*
X931495Y1193577D01*
X933399Y1191672D01*
X935303Y1190720D01*
X926734Y1210716D02*
X933399D01*
X940064D02*
X945777D01*
X954823D02*
Y1190720D01*
X955775Y1210716D02*
Y1190720D01*
X949110Y1210716D02*
X948158Y1205003D01*
Y1210716D01*
X962440D01*
Y1205003D01*
X961488Y1210716D01*
X951966Y1190720D02*
X958632D01*
D13*
X901869Y1105818D02*
Y1093822D01*
X909866D01*
X913865D02*
Y1105818D01*
X917863Y1101819D01*
X921862Y1105818D01*
Y1093822D01*
X933858D02*
X925861D01*
X933858Y1101819D01*
Y1103819D01*
X931859Y1105818D01*
X927860D01*
X925861Y1103819D01*
X945854Y1105818D02*
X937857D01*
Y1099820D01*
X941855Y1101819D01*
X943855D01*
X945854Y1099820D01*
Y1095821D01*
X943855Y1093822D01*
X939856D01*
X937857Y1095821D01*
X949853D02*
X951852Y1093822D01*
X955851D01*
X957850Y1095821D01*
Y1103819D01*
X955851Y1105818D01*
X951852D01*
X949853Y1103819D01*
Y1101819D01*
X951852Y1099820D01*
X957850D01*
X969846Y1105818D02*
X965848Y1103819D01*
X961849Y1099820D01*
Y1095821D01*
X963848Y1093822D01*
X967847D01*
X969846Y1095821D01*
Y1097821D01*
X967847Y1099820D01*
X961849D01*
X973845D02*
X981843D01*
X993839Y1105818D02*
X985841D01*
Y1099820D01*
X989840Y1101819D01*
X991839D01*
X993839Y1099820D01*
Y1095821D01*
X991839Y1093822D01*
X987841D01*
X985841Y1095821D01*
X997837Y1093822D02*
Y1095821D01*
X999837D01*
Y1093822D01*
X997837D01*
X1007834Y1103819D02*
X1009834Y1105818D01*
X1013832D01*
X1015832Y1103819D01*
Y1095821D01*
X1013832Y1093822D01*
X1009834D01*
X1007834Y1095821D01*
Y1103819D01*
X906403Y938178D02*
Y926182D01*
X914400D01*
X918399D02*
X922397D01*
X920398D01*
Y938178D01*
X918399Y936179D01*
X911483Y976278D02*
Y964282D01*
X917481D01*
X919480Y966281D01*
Y974279D01*
X917481Y976278D01*
X911483D01*
X923479Y964282D02*
X927477D01*
X925478D01*
Y976278D01*
X923479Y974279D01*
X834390Y1105089D02*
X832391Y1107088D01*
X828392D01*
X826393Y1105089D01*
Y1097091D01*
X828392Y1095092D01*
X832391D01*
X834390Y1097091D01*
X838389Y1095092D02*
X842387D01*
X840388D01*
Y1107088D01*
X838389Y1105089D01*
X835731Y951419D02*
X833731Y953418D01*
X829733D01*
X827733Y951419D01*
Y943421D01*
X829733Y941422D01*
X833731D01*
X835731Y943421D01*
X847727Y941422D02*
X839729D01*
X847727Y949419D01*
Y951419D01*
X845727Y953418D01*
X841729D01*
X839729Y951419D01*
X915379Y791562D02*
Y799559D01*
X919378Y803558D01*
X923377Y799559D01*
Y791562D01*
Y797560D01*
X915379D01*
X927375Y791562D02*
Y803558D01*
X931374Y799559D01*
X935373Y803558D01*
Y791562D01*
X947369Y801559D02*
X945370Y803558D01*
X941371D01*
X939372Y801559D01*
Y799559D01*
X941371Y797560D01*
X945370D01*
X947369Y795561D01*
Y793561D01*
X945370Y791562D01*
X941371D01*
X939372Y793561D01*
X951368Y791562D02*
X955366D01*
X953367D01*
Y803558D01*
X951368Y801559D01*
X961365Y791562D02*
X965363D01*
X963364D01*
Y803558D01*
X961365Y801559D01*
X971361Y791562D02*
X975360D01*
X973361D01*
Y803558D01*
X971361Y801559D01*
X981358Y803558D02*
X989355D01*
Y801559D01*
X981358Y793561D01*
Y791562D01*
X993354Y797560D02*
X1001352D01*
X1005350Y801559D02*
X1007350Y803558D01*
X1011348D01*
X1013348Y801559D01*
Y799559D01*
X1011348Y797560D01*
X1009349D01*
X1011348D01*
X1013348Y795561D01*
Y793561D01*
X1011348Y791562D01*
X1007350D01*
X1005350Y793561D01*
X1017346Y791562D02*
Y793561D01*
X1019346D01*
Y791562D01*
X1017346D01*
X1027343Y801559D02*
X1029343Y803558D01*
X1033341D01*
X1035341Y801559D01*
Y799559D01*
X1033341Y797560D01*
X1031342D01*
X1033341D01*
X1035341Y795561D01*
Y793561D01*
X1033341Y791562D01*
X1029343D01*
X1027343Y793561D01*
X1013649Y764739D02*
X1015648Y766739D01*
Y770737D01*
X1013649Y772737D01*
X1005651D01*
X1003652Y770737D01*
Y766739D01*
X1005651Y764739D01*
X1013649Y760741D02*
X1015648Y758741D01*
Y754743D01*
X1013649Y752743D01*
X1011649D01*
X1009650Y754743D01*
Y756742D01*
Y754743D01*
X1007651Y752743D01*
X1005651D01*
X1003652Y754743D01*
Y758741D01*
X1005651Y760741D01*
X888811Y762011D02*
X886812Y760011D01*
Y756013D01*
X888811Y754013D01*
X896809D01*
X898808Y756013D01*
Y760011D01*
X896809Y762011D01*
X898808Y772007D02*
X886812D01*
X892810Y766009D01*
Y774007D01*
M02*
