G04*
G04 #@! TF.GenerationSoftware,Altium Limited,Altium Designer,20.0.13 (296)*
G04*
G04 Layer_Physical_Order=2*
G04 Layer_Color=16711680*
%FSLAX44Y44*%
%MOMM*%
G71*
G01*
G75*
%ADD39C,1.2000*%
%ADD40C,0.7000*%
%ADD42R,1.4000X1.4000*%
%ADD43C,1.4000*%
%ADD44R,2.1000X2.1000*%
%ADD45C,2.1000*%
%ADD46R,1.2000X1.2000*%
%ADD47C,1.2000*%
%ADD48R,1.2750X1.2750*%
%ADD49C,1.2750*%
%ADD50C,4.0000*%
%ADD51C,0.7000*%
D39*
X812330Y899960D02*
X859790Y947420D01*
X812330Y871220D02*
Y899960D01*
X859790Y947420D02*
X1012190D01*
X1033780Y969010D02*
Y1061720D01*
X1012190Y947420D02*
X1033780Y969010D01*
X986790Y1071880D02*
X1023620D01*
X1033780Y1061720D01*
X977900Y1046480D02*
X979622Y1048202D01*
Y1064712D01*
X986790Y1071880D01*
D40*
X829310Y751840D02*
Y770890D01*
X866140Y807720D02*
X925830D01*
X829310Y770890D02*
X866140Y807720D01*
D42*
X803910Y751840D02*
D03*
D43*
X829310D02*
D03*
X854710D02*
D03*
D44*
X926900Y1001880D02*
D03*
D45*
X960900D02*
D03*
X994900D02*
D03*
X943900Y1046480D02*
D03*
X977900D02*
D03*
D46*
X860260Y1024890D02*
D03*
D47*
X810260D02*
D03*
D48*
X812330Y871220D02*
D03*
D49*
X862330D02*
D03*
D50*
X762000Y1187450D02*
D03*
X1076960D02*
D03*
X762000Y718820D02*
D03*
X1076960D02*
D03*
D51*
X925830Y807720D02*
D03*
X896620Y795020D02*
D03*
M02*
