G04*
G04 #@! TF.GenerationSoftware,Altium Limited,Altium Designer,20.0.13 (296)*
G04*
G04 Layer_Physical_Order=1*
G04 Layer_Color=255*
%FSLAX44Y44*%
%MOMM*%
G71*
G01*
G75*
%ADD14R,1.1500X1.8000*%
%ADD15R,1.1500X1.7000*%
%ADD16R,1.8000X2.0500*%
%ADD17R,1.1700X1.9300*%
%ADD18R,0.9500X1.3000*%
%ADD19R,3.2500X1.3000*%
%ADD20R,2.3000X1.8000*%
%ADD39C,1.2000*%
%ADD40C,0.7000*%
%ADD41R,4.8000X4.8000*%
%ADD42R,1.4000X1.4000*%
%ADD43C,1.4000*%
%ADD44R,2.1000X2.1000*%
%ADD45C,2.1000*%
%ADD46R,1.2000X1.2000*%
%ADD47C,1.2000*%
%ADD48R,1.2750X1.2750*%
%ADD49C,1.2750*%
%ADD50C,4.0000*%
%ADD51C,0.7000*%
G36*
X1087888Y1225754D02*
X1090891Y1225156D01*
X1093822Y1224268D01*
X1096650Y1223096D01*
X1099351Y1221652D01*
X1101897Y1219951D01*
X1104264Y1218009D01*
X1106433Y1215839D01*
Y1215839D01*
X1106434Y1215838D01*
X1107519Y1214754D01*
X1109461Y1212387D01*
X1111162Y1209841D01*
X1112606Y1207141D01*
X1113777Y1204312D01*
X1114666Y1201381D01*
X1115264Y1198378D01*
X1115564Y1195331D01*
Y1193800D01*
Y717550D01*
Y716019D01*
X1115264Y712972D01*
X1114666Y709969D01*
X1113777Y707038D01*
X1112606Y704210D01*
X1111162Y701509D01*
X1109461Y698963D01*
X1107519Y696596D01*
X1106436Y695514D01*
X1101536Y690614D01*
Y690614D01*
X1099748Y688825D01*
X1095639Y685871D01*
X1091109Y683619D01*
X1086274Y682126D01*
X1083768Y681780D01*
X1083738Y681714D01*
X1083643Y681605D01*
X1083521Y681527D01*
X1083382Y681486D01*
X754119D01*
X751072Y681786D01*
X748069Y682384D01*
X745138Y683272D01*
X742309Y684444D01*
X739609Y685888D01*
X737063Y687589D01*
X734696Y689531D01*
X733614Y690614D01*
X733142Y691086D01*
X732524Y691703D01*
X732524D01*
X731441Y692786D01*
X729499Y695153D01*
X727798Y697699D01*
X726354Y700399D01*
X725182Y703228D01*
X724294Y706159D01*
X723696Y709162D01*
X723396Y712209D01*
Y713740D01*
Y1189990D01*
Y1191521D01*
X723696Y1194568D01*
X724294Y1197571D01*
X725182Y1200502D01*
X726354Y1203331D01*
X727798Y1206031D01*
X729499Y1208577D01*
X731441Y1210944D01*
X732527Y1212029D01*
X733424Y1212926D01*
X737423Y1216926D01*
X737423D01*
X737423Y1216926D01*
X738506Y1218009D01*
X740873Y1219951D01*
X743419Y1221652D01*
X746120Y1223096D01*
X748948Y1224268D01*
X751879Y1225156D01*
X754882Y1225754D01*
X757929Y1226054D01*
X1084841D01*
X1087888Y1225754D01*
D02*
G37*
%LPC*%
G36*
X1076960Y1210099D02*
X1072541Y1209664D01*
X1068293Y1208375D01*
X1064377Y1206282D01*
X1060945Y1203465D01*
X1058128Y1200033D01*
X1056035Y1196117D01*
X1054746Y1191869D01*
X1054311Y1187450D01*
X1054746Y1183031D01*
X1056035Y1178783D01*
X1058128Y1174867D01*
X1060945Y1171435D01*
X1064377Y1168618D01*
X1068293Y1166525D01*
X1072541Y1165236D01*
X1076960Y1164801D01*
X1081379Y1165236D01*
X1085627Y1166525D01*
X1089543Y1168618D01*
X1092975Y1171435D01*
X1095792Y1174867D01*
X1097885Y1178783D01*
X1099174Y1183031D01*
X1099609Y1187450D01*
X1099174Y1191869D01*
X1097885Y1196117D01*
X1095792Y1200033D01*
X1092975Y1203465D01*
X1089543Y1206282D01*
X1085627Y1208375D01*
X1081379Y1209664D01*
X1076960Y1210099D01*
D02*
G37*
G36*
X762000D02*
X757581Y1209664D01*
X753333Y1208375D01*
X749417Y1206282D01*
X745985Y1203465D01*
X743168Y1200033D01*
X741075Y1196117D01*
X739786Y1191869D01*
X739351Y1187450D01*
X739786Y1183031D01*
X741075Y1178783D01*
X743168Y1174867D01*
X745985Y1171435D01*
X749417Y1168618D01*
X753333Y1166525D01*
X757581Y1165236D01*
X762000Y1164801D01*
X766419Y1165236D01*
X770667Y1166525D01*
X774583Y1168618D01*
X778015Y1171435D01*
X780832Y1174867D01*
X782925Y1178783D01*
X784214Y1183031D01*
X784649Y1187450D01*
X784214Y1191869D01*
X782925Y1196117D01*
X780832Y1200033D01*
X778015Y1203465D01*
X774583Y1206282D01*
X770667Y1208375D01*
X766419Y1209664D01*
X762000Y1210099D01*
D02*
G37*
G36*
X978910Y1187500D02*
X930910D01*
X929919Y1187303D01*
X929079Y1186741D01*
X928517Y1185901D01*
X928320Y1184910D01*
Y1136910D01*
X928517Y1135919D01*
X929079Y1135079D01*
X929919Y1134517D01*
X930910Y1134320D01*
X978910D01*
X979901Y1134517D01*
X980741Y1135079D01*
X981303Y1135919D01*
X981500Y1136910D01*
Y1184910D01*
X981303Y1185901D01*
X980741Y1186741D01*
X979901Y1187303D01*
X978910Y1187500D01*
D02*
G37*
G36*
X977900Y1059632D02*
X974496Y1059184D01*
X971324Y1057870D01*
X968600Y1055780D01*
X966510Y1053056D01*
X965196Y1049884D01*
X964747Y1046480D01*
X965196Y1043076D01*
X966510Y1039904D01*
X968600Y1037180D01*
X971324Y1035090D01*
X974496Y1033776D01*
X977900Y1033327D01*
X981304Y1033776D01*
X984476Y1035090D01*
X987200Y1037180D01*
X989290Y1039904D01*
X990604Y1043076D01*
X991052Y1046480D01*
X990604Y1049884D01*
X989290Y1053056D01*
X987200Y1055780D01*
X984476Y1057870D01*
X981304Y1059184D01*
X977900Y1059632D01*
D02*
G37*
G36*
X909060Y1187500D02*
X861060D01*
X860069Y1187303D01*
X859229Y1186741D01*
X858667Y1185901D01*
X858470Y1184910D01*
Y1136910D01*
X858667Y1135919D01*
X859229Y1135079D01*
X860069Y1134517D01*
X861060Y1134320D01*
X874036D01*
Y1121410D01*
X874330Y1119181D01*
X874686Y1118320D01*
X875190Y1117103D01*
X876559Y1115319D01*
X895626Y1096252D01*
Y1033154D01*
X868800D01*
Y1033430D01*
X860820D01*
X860260Y1033504D01*
X859700Y1033430D01*
X851720D01*
Y1025450D01*
X851646Y1024890D01*
X851720Y1024330D01*
Y1016350D01*
X858066D01*
X858381Y1016220D01*
X860610Y1015926D01*
X900672D01*
X913860Y1002738D01*
Y988840D01*
X939940D01*
Y1014920D01*
X926042D01*
X912854Y1028108D01*
Y1099820D01*
X912854Y1099820D01*
X912707Y1100935D01*
X912560Y1102049D01*
X911700Y1104127D01*
X910331Y1105911D01*
X910331Y1105911D01*
X891264Y1124978D01*
Y1134320D01*
X909060D01*
X910051Y1134517D01*
X910891Y1135079D01*
X911453Y1135919D01*
X911650Y1136910D01*
Y1184910D01*
X911453Y1185901D01*
X910891Y1186741D01*
X910051Y1187303D01*
X909060Y1187500D01*
D02*
G37*
G36*
X811530Y1033336D02*
Y1026160D01*
X818707D01*
X818580Y1027119D01*
X817720Y1029197D01*
X816351Y1030981D01*
X814567Y1032350D01*
X812489Y1033210D01*
X811530Y1033336D01*
D02*
G37*
G36*
X808990D02*
X808031Y1033210D01*
X805953Y1032350D01*
X804169Y1030981D01*
X802800Y1029197D01*
X801940Y1027119D01*
X801814Y1026160D01*
X808990D01*
Y1033336D01*
D02*
G37*
G36*
X818707Y1023620D02*
X811530D01*
Y1016443D01*
X812489Y1016570D01*
X814567Y1017430D01*
X816351Y1018799D01*
X817720Y1020583D01*
X818580Y1022661D01*
X818707Y1023620D01*
D02*
G37*
G36*
X808990D02*
X801814D01*
X801940Y1022661D01*
X802800Y1020583D01*
X804169Y1018799D01*
X805953Y1017430D01*
X808031Y1016570D01*
X808990Y1016443D01*
Y1023620D01*
D02*
G37*
G36*
X1002030Y1097004D02*
X958850D01*
X956621Y1096710D01*
X954543Y1095850D01*
X952759Y1094481D01*
X939349Y1081071D01*
X937980Y1079287D01*
X937120Y1077209D01*
X936826Y1074980D01*
Y1057489D01*
X934600Y1055780D01*
X932510Y1053056D01*
X931196Y1049884D01*
X930748Y1046480D01*
X931196Y1043076D01*
X932510Y1039904D01*
X934600Y1037180D01*
X937324Y1035090D01*
X940496Y1033776D01*
X943900Y1033327D01*
X947304Y1033776D01*
X950476Y1035090D01*
X953200Y1037180D01*
X955290Y1039904D01*
X956604Y1043076D01*
X957053Y1046480D01*
X956604Y1049884D01*
X955290Y1053056D01*
X954054Y1054668D01*
Y1071412D01*
X962418Y1079776D01*
X998462D01*
X1008656Y1069582D01*
Y1006063D01*
X1007386Y1005810D01*
X1006290Y1008456D01*
X1004200Y1011180D01*
X1001476Y1013270D01*
X998304Y1014584D01*
X996170Y1014865D01*
Y1001880D01*
Y988895D01*
X998304Y989176D01*
X1001476Y990490D01*
X1004200Y992580D01*
X1006290Y995304D01*
X1007386Y997950D01*
X1008656Y997697D01*
Y982738D01*
X1003542Y977624D01*
X993570D01*
Y982470D01*
X976790D01*
Y971979D01*
X976566Y970280D01*
Y969160D01*
X976790Y967461D01*
Y958090D01*
X993570D01*
Y960396D01*
X1007110D01*
X1007701Y960474D01*
X1008656Y959637D01*
Y930668D01*
X1006183Y928195D01*
X1005010Y928681D01*
Y929730D01*
X981930D01*
Y904150D01*
X1005010D01*
Y909596D01*
X1008380D01*
X1010609Y909890D01*
X1011470Y910246D01*
X1012687Y910750D01*
X1014471Y912119D01*
X1023361Y921009D01*
X1024730Y922793D01*
X1025590Y924871D01*
X1025884Y927100D01*
X1025884Y927100D01*
Y979170D01*
Y1073150D01*
X1025590Y1075379D01*
X1025234Y1076240D01*
X1024730Y1077457D01*
X1023361Y1079241D01*
X1008121Y1094481D01*
X1006337Y1095850D01*
X1005120Y1096354D01*
X1004259Y1096710D01*
X1002030Y1097004D01*
D02*
G37*
G36*
X993630Y1014865D02*
X991496Y1014584D01*
X988324Y1013270D01*
X985600Y1011180D01*
X983510Y1008456D01*
X982196Y1005284D01*
X981915Y1003150D01*
X993630D01*
Y1014865D01*
D02*
G37*
G36*
X962170D02*
Y1003150D01*
X973885D01*
X973604Y1005284D01*
X972290Y1008456D01*
X970200Y1011180D01*
X967476Y1013270D01*
X964304Y1014584D01*
X962170Y1014865D01*
D02*
G37*
G36*
X959630D02*
X957496Y1014584D01*
X954324Y1013270D01*
X951600Y1011180D01*
X949510Y1008456D01*
X948196Y1005284D01*
X947915Y1003150D01*
X959630D01*
Y1014865D01*
D02*
G37*
G36*
X993630Y1000610D02*
X981915D01*
X982196Y998476D01*
X983510Y995304D01*
X985600Y992580D01*
X988324Y990490D01*
X991496Y989176D01*
X993630Y988895D01*
Y1000610D01*
D02*
G37*
G36*
X973885D02*
X962170D01*
Y988895D01*
X964304Y989176D01*
X967476Y990490D01*
X970200Y992580D01*
X972290Y995304D01*
X973604Y998476D01*
X973885Y1000610D01*
D02*
G37*
G36*
X959630D02*
X947915D01*
X948196Y998476D01*
X949510Y995304D01*
X951600Y992580D01*
X954324Y990490D01*
X957496Y989176D01*
X959630Y988895D01*
Y1000610D01*
D02*
G37*
G36*
X951070Y982470D02*
X943950D01*
Y971550D01*
X951070D01*
Y982470D01*
D02*
G37*
G36*
X941410D02*
X934290D01*
Y971550D01*
X941410D01*
Y982470D01*
D02*
G37*
G36*
X951070Y969010D02*
X943950D01*
Y958090D01*
X951070D01*
Y969010D01*
D02*
G37*
G36*
X941410D02*
X934290D01*
Y958090D01*
X941410D01*
Y969010D01*
D02*
G37*
G36*
X951010Y929730D02*
X927930D01*
Y925554D01*
X830580D01*
X828351Y925260D01*
X827490Y924904D01*
X826273Y924400D01*
X824489Y923031D01*
X806239Y904781D01*
X804870Y902997D01*
X804366Y901780D01*
X804010Y900919D01*
X803716Y898690D01*
Y880135D01*
X803415D01*
Y862305D01*
X821245D01*
Y880135D01*
X820944D01*
Y895122D01*
X834148Y908326D01*
X891653D01*
X892086Y907056D01*
X890930Y905327D01*
X890462Y902970D01*
Y867410D01*
Y801178D01*
X875030D01*
X872673Y800710D01*
X870675Y799375D01*
X851625Y780325D01*
X850291Y778327D01*
X849822Y775970D01*
Y760114D01*
X847906Y758644D01*
X846377Y756651D01*
X845416Y754330D01*
X845088Y751840D01*
X845416Y749350D01*
X846377Y747029D01*
X847906Y745036D01*
X849899Y743507D01*
X852220Y742546D01*
X854710Y742218D01*
X857200Y742546D01*
X859521Y743507D01*
X861514Y745036D01*
X863043Y747029D01*
X864004Y749350D01*
X864332Y751840D01*
X864004Y754330D01*
X863043Y756651D01*
X862138Y757830D01*
Y773419D01*
X877581Y788862D01*
X890462D01*
Y771140D01*
Y725170D01*
X890930Y722813D01*
X892265Y720815D01*
X921586Y691495D01*
X923584Y690160D01*
X925941Y689691D01*
X991759D01*
X994116Y690160D01*
X996114Y691495D01*
X1003885Y699265D01*
X1005220Y701263D01*
X1005688Y703620D01*
Y705490D01*
X1006820D01*
Y723570D01*
X994288D01*
X993802Y724743D01*
X1011671Y742612D01*
X1024820D01*
Y737230D01*
X1052900D01*
Y760310D01*
X1024820D01*
Y754928D01*
X1023428D01*
Y793750D01*
X1022960Y796107D01*
X1021625Y798105D01*
X1007655Y812075D01*
X1005657Y813410D01*
X1003300Y813878D01*
X928381D01*
X924608Y817651D01*
Y822080D01*
X926740D01*
Y844160D01*
X910160D01*
Y822080D01*
X912292D01*
Y815100D01*
X912760Y812743D01*
X914095Y810745D01*
X921475Y803365D01*
X923473Y802030D01*
X925830Y801562D01*
X1000749D01*
X1011112Y791199D01*
Y754928D01*
X1009120D01*
X1006763Y754460D01*
X1004765Y753125D01*
X975211Y723570D01*
X969340D01*
Y705490D01*
X983920D01*
Y714861D01*
X991067Y722008D01*
X992240Y721521D01*
Y713875D01*
X992122Y713280D01*
X992240Y712685D01*
Y705490D01*
X992240Y705490D01*
X992240D01*
X991666Y704465D01*
X989208Y702007D01*
X928492D01*
X902778Y727721D01*
Y754613D01*
X903952Y755099D01*
X906710Y752341D01*
Y737970D01*
X934790D01*
Y761050D01*
X915419D01*
X910673Y765797D01*
X911159Y766970D01*
X919480D01*
Y777240D01*
X906710D01*
Y771419D01*
X905537Y770932D01*
X902778Y773691D01*
Y795020D01*
Y861252D01*
X910160D01*
Y856370D01*
X926740D01*
Y878450D01*
X910160D01*
Y873568D01*
X902778D01*
Y900419D01*
X910686Y908326D01*
X927930D01*
Y904150D01*
X951010D01*
Y929730D01*
D02*
G37*
G36*
X981110Y878950D02*
X964530D01*
Y873568D01*
X956740D01*
Y878450D01*
X940160D01*
Y856370D01*
X956740D01*
Y861252D01*
X964530D01*
Y855870D01*
X981110D01*
Y878950D01*
D02*
G37*
G36*
X863600Y880045D02*
Y872490D01*
X871155D01*
X871015Y873547D01*
X870117Y875716D01*
X868688Y877578D01*
X866826Y879007D01*
X864657Y879905D01*
X863600Y880045D01*
D02*
G37*
G36*
X861060D02*
X860003Y879905D01*
X857834Y879007D01*
X855972Y877578D01*
X854543Y875716D01*
X853644Y873547D01*
X853505Y872490D01*
X861060D01*
Y880045D01*
D02*
G37*
G36*
X1011110Y878950D02*
X1004090D01*
Y868680D01*
X1011110D01*
Y878950D01*
D02*
G37*
G36*
X1001550D02*
X994530D01*
Y868680D01*
X1001550D01*
Y878950D01*
D02*
G37*
G36*
X871155Y869950D02*
X863600D01*
Y862395D01*
X864657Y862534D01*
X866826Y863433D01*
X868688Y864862D01*
X870117Y866724D01*
X871015Y868893D01*
X871155Y869950D01*
D02*
G37*
G36*
X861060D02*
X853505D01*
X853644Y868893D01*
X854543Y866724D01*
X855972Y864862D01*
X857834Y863433D01*
X860003Y862534D01*
X861060Y862395D01*
Y869950D01*
D02*
G37*
G36*
X1011110Y866140D02*
X1004090D01*
Y855870D01*
X1011110D01*
Y866140D01*
D02*
G37*
G36*
X1001550D02*
X994530D01*
Y855870D01*
X1001550D01*
Y866140D01*
D02*
G37*
G36*
X981350Y844660D02*
X964770D01*
Y839278D01*
X956740D01*
Y844160D01*
X940160D01*
Y822080D01*
X956740D01*
Y826962D01*
X964770D01*
Y821580D01*
X981350D01*
Y844660D01*
D02*
G37*
G36*
X1011350D02*
X1004330D01*
Y834390D01*
X1011350D01*
Y844660D01*
D02*
G37*
G36*
X1001790D02*
X994770D01*
Y834390D01*
X1001790D01*
Y844660D01*
D02*
G37*
G36*
X1011350Y831850D02*
X1004330D01*
Y821580D01*
X1011350D01*
Y831850D01*
D02*
G37*
G36*
X1001790D02*
X994770D01*
Y821580D01*
X1001790D01*
Y831850D01*
D02*
G37*
G36*
X934790Y790050D02*
X922020D01*
Y779780D01*
X934790D01*
Y790050D01*
D02*
G37*
G36*
X919480D02*
X906710D01*
Y779780D01*
X919480D01*
Y790050D01*
D02*
G37*
G36*
X1052900Y789310D02*
X1040130D01*
Y779040D01*
X1052900D01*
Y789310D01*
D02*
G37*
G36*
X1037590D02*
X1024820D01*
Y779040D01*
X1037590D01*
Y789310D01*
D02*
G37*
G36*
X995420Y790570D02*
X957840D01*
Y772490D01*
X995420D01*
Y790570D01*
D02*
G37*
G36*
X934790Y777240D02*
X922020D01*
Y766970D01*
X934790D01*
Y777240D01*
D02*
G37*
G36*
X1052900Y776500D02*
X1040130D01*
Y766230D01*
X1052900D01*
Y776500D01*
D02*
G37*
G36*
X1037590D02*
X1024820D01*
Y766230D01*
X1037590D01*
Y776500D01*
D02*
G37*
G36*
X813450Y761380D02*
X805180D01*
Y753110D01*
X813450D01*
Y761380D01*
D02*
G37*
G36*
X802640D02*
X794370D01*
Y753110D01*
X802640D01*
Y761380D01*
D02*
G37*
G36*
X813450Y750570D02*
X805180D01*
Y742300D01*
X813450D01*
Y750570D01*
D02*
G37*
G36*
X802640D02*
X794370D01*
Y742300D01*
X802640D01*
Y750570D01*
D02*
G37*
G36*
X829310Y761462D02*
X826820Y761134D01*
X824499Y760173D01*
X822506Y758644D01*
X820977Y756651D01*
X820016Y754330D01*
X819688Y751840D01*
X820016Y749350D01*
X820977Y747029D01*
X822506Y745036D01*
X824499Y743507D01*
X826820Y742546D01*
X829310Y742218D01*
X831800Y742546D01*
X834121Y743507D01*
X836114Y745036D01*
X837643Y747029D01*
X838604Y749350D01*
X838932Y751840D01*
X838604Y754330D01*
X837643Y756651D01*
X836114Y758644D01*
X834121Y760173D01*
X831800Y761134D01*
X829310Y761462D01*
D02*
G37*
G36*
X961020Y723570D02*
X955000D01*
Y715800D01*
X961020D01*
Y723570D01*
D02*
G37*
G36*
X952460D02*
X946440D01*
Y715800D01*
X952460D01*
Y723570D01*
D02*
G37*
G36*
X961020Y713260D02*
X955000D01*
Y705490D01*
X961020D01*
Y713260D01*
D02*
G37*
G36*
X952460D02*
X946440D01*
Y705490D01*
X952460D01*
Y713260D01*
D02*
G37*
G36*
X1076960Y741469D02*
X1072541Y741034D01*
X1068293Y739745D01*
X1064377Y737652D01*
X1060945Y734835D01*
X1058128Y731403D01*
X1056035Y727487D01*
X1054746Y723239D01*
X1054311Y718820D01*
X1054746Y714401D01*
X1056035Y710153D01*
X1058128Y706237D01*
X1060945Y702805D01*
X1064377Y699988D01*
X1068293Y697895D01*
X1072541Y696606D01*
X1076960Y696171D01*
X1081379Y696606D01*
X1085627Y697895D01*
X1089543Y699988D01*
X1092975Y702805D01*
X1095792Y706237D01*
X1097885Y710153D01*
X1099174Y714401D01*
X1099609Y718820D01*
X1099174Y723239D01*
X1097885Y727487D01*
X1095792Y731403D01*
X1092975Y734835D01*
X1089543Y737652D01*
X1085627Y739745D01*
X1081379Y741034D01*
X1076960Y741469D01*
D02*
G37*
G36*
X762000D02*
X757581Y741034D01*
X753333Y739745D01*
X749417Y737652D01*
X745985Y734835D01*
X743168Y731403D01*
X741075Y727487D01*
X739786Y723239D01*
X739351Y718820D01*
X739786Y714401D01*
X741075Y710153D01*
X743168Y706237D01*
X745985Y702805D01*
X749417Y699988D01*
X753333Y697895D01*
X757581Y696606D01*
X762000Y696171D01*
X766419Y696606D01*
X770667Y697895D01*
X774583Y699988D01*
X778015Y702805D01*
X780832Y706237D01*
X782925Y710153D01*
X784214Y714401D01*
X784649Y718820D01*
X784214Y723239D01*
X782925Y727487D01*
X780832Y731403D01*
X778015Y734835D01*
X774583Y737652D01*
X770667Y739745D01*
X766419Y741034D01*
X762000Y741469D01*
D02*
G37*
%LPD*%
D14*
X972820Y867410D02*
D03*
X1002820D02*
D03*
X973060Y833120D02*
D03*
X1003060D02*
D03*
D15*
X918450Y867410D02*
D03*
X948450D02*
D03*
Y833120D02*
D03*
X918450D02*
D03*
D16*
X939470Y916940D02*
D03*
X993470D02*
D03*
D17*
X985180Y970280D02*
D03*
X942680D02*
D03*
D18*
X953730Y714530D02*
D03*
X976630D02*
D03*
X999530D02*
D03*
D19*
X976630Y781530D02*
D03*
D20*
X1038860Y748770D02*
D03*
Y777770D02*
D03*
X920750Y749510D02*
D03*
Y778510D02*
D03*
D39*
X953770Y1126490D02*
Y1195070D01*
X882650Y1121410D02*
Y1158240D01*
Y1121410D02*
X904240Y1099820D01*
X830580Y916940D02*
X910590D01*
X939470D01*
X812330Y871220D02*
Y898690D01*
X830580Y916940D01*
X993470D02*
X994740Y918210D01*
X1008380D01*
X1017270Y927100D02*
Y979170D01*
X1008380Y918210D02*
X1017270Y927100D01*
X985180Y969160D02*
Y970280D01*
Y969160D02*
X985330Y969010D01*
X1007110D01*
X1017270Y979170D02*
Y1073150D01*
X1007110Y969010D02*
X1017270Y979170D01*
X958850Y1088390D02*
X1002030D01*
X1017270Y1073150D01*
X943900Y1046480D02*
X945440Y1048020D01*
Y1074980D01*
X958850Y1088390D01*
X882650Y1158240D02*
X883920Y1159510D01*
X904240Y1024540D02*
Y1099820D01*
X860260Y1024890D02*
X860610Y1024540D01*
X904240D01*
X926900Y1001880D01*
X927100Y1002080D01*
D40*
X896620Y795020D02*
Y867410D01*
Y771140D02*
Y795020D01*
X855980Y753110D02*
Y775970D01*
X854710Y751840D02*
X855980Y753110D01*
X875030Y795020D02*
X896620D01*
X855980Y775970D02*
X875030Y795020D01*
X1017270Y748770D02*
X1038860D01*
X1009120D02*
X1017270D01*
X918450Y815100D02*
X925830Y807720D01*
X918450Y815100D02*
Y833120D01*
X925830Y807720D02*
X1003300D01*
X1017270Y748770D02*
Y793750D01*
X1003300Y807720D02*
X1017270Y793750D01*
X976630Y714530D02*
Y716280D01*
X1009120Y748770D01*
X999530Y703620D02*
Y714530D01*
X925941Y695849D02*
X991759D01*
X999530Y703620D01*
X998280Y713280D02*
X999530Y714530D01*
X896620Y725170D02*
X925941Y695849D01*
X896620Y725170D02*
Y771140D01*
X918250Y749510D02*
X920750D01*
X896620Y771140D02*
X918250Y749510D01*
X948450Y833120D02*
X973060D01*
X948450Y867410D02*
X972820D01*
X896620D02*
Y902970D01*
Y867410D02*
X918450D01*
X896620Y902970D02*
X910590Y916940D01*
D41*
X954910Y1160910D02*
D03*
X885060D02*
D03*
D42*
X803910Y751840D02*
D03*
D43*
X829310D02*
D03*
X854710D02*
D03*
D44*
X926900Y1001880D02*
D03*
D45*
X960900D02*
D03*
X994900D02*
D03*
X943900Y1046480D02*
D03*
X977900D02*
D03*
D46*
X860260Y1024890D02*
D03*
D47*
X810260D02*
D03*
D48*
X812330Y871220D02*
D03*
D49*
X862330D02*
D03*
D50*
X762000Y1187450D02*
D03*
X1076960D02*
D03*
X762000Y718820D02*
D03*
X1076960D02*
D03*
D51*
X925830Y807720D02*
D03*
X896620Y795020D02*
D03*
M02*
