G04*
G04 #@! TF.GenerationSoftware,Altium Limited,Altium Designer,20.0.13 (296)*
G04*
G04 Layer_Color=255*
%FSLAX44Y44*%
%MOMM*%
G71*
G01*
G75*
%ADD14R,1.1500X1.8000*%
%ADD15R,1.1500X1.7000*%
%ADD16R,1.8000X2.0500*%
%ADD17R,1.1700X1.9300*%
%ADD18R,0.9500X1.3000*%
%ADD19R,3.2500X1.3000*%
%ADD20R,2.3000X1.8000*%
%ADD42R,1.4000X1.4000*%
%ADD43C,1.4000*%
%ADD44R,2.1000X2.1000*%
%ADD45C,2.1000*%
%ADD46R,1.2000X1.2000*%
%ADD47C,1.2000*%
%ADD48R,1.2750X1.2750*%
%ADD49C,1.2750*%
D14*
X972820Y867410D02*
D03*
X1002820D02*
D03*
X973060Y833120D02*
D03*
X1003060D02*
D03*
D15*
X918450Y867410D02*
D03*
X948450D02*
D03*
Y833120D02*
D03*
X918450D02*
D03*
D16*
X939470Y916940D02*
D03*
X993470D02*
D03*
D17*
X985180Y970280D02*
D03*
X942680D02*
D03*
D18*
X953730Y714530D02*
D03*
X976630D02*
D03*
X999530D02*
D03*
D19*
X976630Y781530D02*
D03*
D20*
X1038860Y748770D02*
D03*
Y777770D02*
D03*
X920750Y749510D02*
D03*
Y778510D02*
D03*
D42*
X803910Y751840D02*
D03*
D43*
X829310D02*
D03*
X854710D02*
D03*
D44*
X926900Y1001880D02*
D03*
D45*
X960900D02*
D03*
X994900D02*
D03*
X943900Y1046480D02*
D03*
X977900D02*
D03*
D46*
X860260Y1024890D02*
D03*
D47*
X810260D02*
D03*
D48*
X812330Y871220D02*
D03*
D49*
X862330D02*
D03*
M02*
